<?xml version="1.0" encoding="UTF-8"?>
<svg id="Capa_2" data-name="Capa 2" xmlns="http://www.w3.org/2000/svg" viewBox="0 0 44.84 43.33">
  <defs>
    <style>
      .cls-1 {
        fill: #072c75;
      }

      .cls-2 {
        fill: #8fdbf1;
      }

      .cls-3 {
        fill: #f15f6a;
      }

      .cls-4 {
        fill: #f3b54e;
      }

      .cls-5 {
        fill: #f7d092;
      }

      .cls-6 {
        fill: #fdfdfd;
      }
    </style>
  </defs>
  <g id="Capa_1-2" data-name="Capa 1">
    <g>
      <path class="cls-1" d="M0,23.89c.49-.86,1.25-.56,2.09-.63.01-.35.55-.79.61-1.01.13-.47.12-1.48.22-2.06.7-4.1,2.95-7.33,3.21-11.58.02-.35.06-1.83-.08-2.02-.12-.16-.63-.48-.84-.74C3.3,3.51,4.93.31,7.84.07s6.03.17,8.93,0c2.9.13,4.5,3.59,2.58,5.82-.18.21-.81.66-.85.81-.09.29-.05,1.7-.02,2.09.16,2.62,1.12,5.09,2.11,7.47,2.09-.34,4.35.33,5.65,2.03,3.01-1.13,6.39.26,7.58,3.26.45,1.13.49,2.32.43,3.52-.03.5-.35,2.01-.27,2.34.02.07.51.31.61.41v-1.71c0-1.29,1.6-3.01,2.76-3.46.74-.29,2.72-.74,2.58.65-.09.89-.99.72-1.58.88-.86.22-2.01,1.26-2.01,2.19v1.44c1.83-1.46,4.36-1.63,6.26-.17,3.39,2.6,2.44,7.93.43,11.11-.84,1.34-3.14,4.04-4.67,4.43-1.2.31-1.72-.31-2.76-.32-.74,0-1.52.44-2.19.45-1.55.03-2.62-1.16-3.59-2.19s-1.81-2.04-2.41-3.24c-1.29.85-2.61,1.73-4.1,2.2.1,1.44-.75,2.78-2.18,3.12l-16.61.02c-.96-.17-1.69-.86-1.84-1.83-.38-2.41.32-5.65-.04-8.01-.06-.38-.66-1.18-.86-1.59-.53-1.11-.95-2.27-1.26-3.46l-.5-2.52v-1.93ZM7.86,1.85c-2.01.19-2.34,2.79-.44,3.46h9.69c2.07-.83,1.63-3.33-.69-3.49-2.77-.19-5.77.13-8.56.03ZM16.63,7.16H7.88v1.66h8.84l-.09-1.66ZM4.55,21.17h1.44c.53,0,1.66.81,2.01,1.23.14.17.46.83.5.85.06.04,1.05.04,1.15,0,.08-.03.74-1.19.94-1.43,1.44-1.76,3.53-2.42,5.78-2.1.55-1.21,1.39-2.17,2.54-2.82-.73-2.04-1.73-4.04-1.93-6.24H7.67c-.56,3.66-2.76,6.79-3.11,10.51ZM32.39,23.27c-.24-2.62-2.79-4.17-5.3-3.42-.35.11-.88.47-1.2.43-.6-.07-1.08-1.06-1.6-1.47-1.85-1.44-4.61-1.04-5.91.92-.34.52-.41,1.03-.67,1.53-.46.9-1.31.27-2.01.19-1.57-.17-3.14.48-3.97,1.83h20.66ZM6.3,23.27c-.44-.5-1.58-.5-2.01,0h2.01ZM5.25,28.18c0,.32-.24.88-.57.88h-2.06c.05.42.39,1.46.66,1.75.05.06,1.28.73,1.35.75,1.01.3,1.26-.35,2.02-.61.63-.22,1.35-.26,2-.07s1.02.72,1.72.73c.75.02,1.11-.54,1.81-.73s1.46-.14,2.11.13c.33.14.68.51,1,.57.99.21,1.29-.45,2.08-.69.68-.2,1.39-.18,2.06.05.41.14.85.59,1.19.65,1.08.18,1.75-.86,2.97-.87.98,0,1.6.57,2.44.87.11-.04.11-.12.14-.22.12-.52.17-.95.38-1.46.12-.31.32-.55.42-.85h-15.8c-.31,0-.57-.57-.57-.88,0-.56.3-.78.83-.88h17.25c.45-.07,1.24-.61,1.66-.61h1.97l.09-1.66H1.88s-.15.13-.11.2l.33,2.04c.91.25,3.13-.52,3.16.91ZM30.62,28.46c-3.2.46-3.05,4.87-2.32,7.17.54,1.69,2.46,4.25,3.83,5.37,1.2.98,1.84.2,3.11.13,1.01-.05,2.31.58,3.07.18.94-.5,2.92-2.92,3.47-3.88,1.29-2.26,2.14-6.25-.06-8.2-1.57-1.4-4.23-.88-5.11,1.02-.3.65-.15,1.69-.95,1.85-1.22.25-1.02-1.08-1.36-1.84-.62-1.39-2.22-2-3.67-1.8ZM26.09,33.34c-1.17.12-1.78-1.11-2.98-.75-.2.06-.51.36-.75.47-.8.38-1.92.41-2.72.03-.26-.12-.54-.43-.81-.5-1.17-.31-1.51.57-2.43.73-.31.05-.89.05-1.2.02-1.06-.11-1.58-1.16-2.73-.72-1.05.4-.93.84-2.44.72-1.02-.08-1.48-.88-2.45-.8-.62.05-1.07.64-1.7.75-.33.06-.65,0-.97.08,0,.49,2.56,2.76,3.07,3.14.86.64,3,1.93,4.02,2.11.18.03,1.16.09,1.22.03.18-.16-.13-1.13.93-1.14s.76.98.92,1.15c.03.03.65.02.73-.01.21-.07.12-.4.18-.61.19-.58,1.05-.73,1.45-.3.31.33.23.89.26.92.03.03.85.03.88,0,.04-.04-.15-.83.46-1.07.81-.33,1.38.28,1.29,1.07,1.65.21,2.9-.32,4.29-1.09.36-.2,1.75-1.04,1.93-1.31.15-.22-.19-1.01-.24-1.34-.09-.53-.15-1.06-.2-1.59ZM4.38,35.71v5.38s.27.39.31.39h6.43c-.12-.46-.21-.91-.19-1.39-1.79-.59-3.38-1.65-4.85-2.81l-1.71-1.57ZM21.54,40.43h-8.84c.02.54.29.94.84,1.04,2.24-.15,4.8.22,7,.01.67-.06.91-.42,1-1.06Z"/>
      <path class="cls-3" d="M30.62,28.46c1.45-.21,3.06.41,3.67,1.8.34.76.14,2.09,1.36,1.84.8-.16.65-1.21.95-1.85.88-1.9,3.54-2.42,5.11-1.02,2.19,1.95,1.34,5.94.06,8.2-.55.96-2.53,3.39-3.47,3.88-.76.4-2.06-.24-3.07-.18-1.27.07-1.91.85-3.11-.13-1.37-1.12-3.29-3.68-3.83-5.37-.73-2.31-.88-6.71,2.32-7.17Z"/>
      <path class="cls-6" d="M4.55,21.17c.36-3.71,2.56-6.85,3.11-10.51h9.32c.2,2.21,1.2,4.21,1.93,6.25-1.16.66-1.99,1.62-2.54,2.82-2.24-.32-4.34.34-5.78,2.1-.19.24-.85,1.4-.94,1.43-.11.04-1.1.04-1.15,0-.04-.03-.37-.69-.5-.85-.34-.42-1.48-1.23-2.01-1.23h-1.44Z"/>
      <path class="cls-5" d="M26.09,33.34c.05.53.11,1.07.2,1.59.06.33.4,1.12.24,1.34-.19.27-1.57,1.11-1.93,1.31-1.4.77-2.64,1.31-4.29,1.09.09-.79-.48-1.4-1.29-1.07-.61.25-.42,1.03-.46,1.07-.03.03-.85.03-.88,0-.03-.04.05-.6-.26-.92-.4-.42-1.26-.28-1.45.3-.07.2.03.54-.18.61-.08.03-.71.04-.73.01-.16-.16.18-1.16-.92-1.15s-.74.98-.93,1.14c-.07.06-1.04,0-1.22-.03-1.01-.19-3.15-1.47-4.02-2.11-.51-.38-3.07-2.66-3.07-3.14.32-.08.64-.02.97-.08.63-.12,1.08-.7,1.7-.75.97-.08,1.43.72,2.45.8,1.51.11,1.39-.33,2.44-.72,1.15-.44,1.67.61,2.73.72.32.03.89.03,1.2-.02.92-.16,1.26-1.03,2.43-.73.27.07.55.38.81.5.8.38,1.92.35,2.72-.03.24-.11.55-.41.75-.47,1.2-.36,1.81.87,2.98.75Z"/>
      <path class="cls-4" d="M5.25,28.18c-.03-1.43-2.25-.66-3.16-.91l-.33-2.04c-.03-.07.08-.2.11-.2h30.51l-.09,1.66h-1.97c-.42,0-1.21.54-1.66.61H11.42c-.53.09-.83.31-.83.87h-1.75c-.01-1.01-1.72-1.27-1.75,0h-1.84Z"/>
      <path class="cls-6" d="M32.39,23.27H11.73c.83-1.35,2.41-1.99,3.97-1.83.71.07,1.55.71,2.01-.19.25-.49.32-1.01.67-1.53,1.3-1.96,4.06-2.36,5.91-.92.53.41,1.01,1.4,1.6,1.47.32.04.85-.32,1.2-.43,2.51-.75,5.06.8,5.3,3.42ZM20.55,19.7c-1.13.22-.82,2.04.48,1.71.97-.25.65-1.93-.48-1.71ZM22.39,20.4c-.94.21-.6,1.92.48,1.72s.99-2.05-.48-1.72ZM27.12,21.01c-1.01.22-.84,2.02.49,1.72.98-.23.71-1.98-.49-1.72Z"/>
      <path class="cls-5" d="M7.09,28.18c-.03,1.25,1.76,1.11,1.75,0h1.75c0,.3.26.88.57.88h15.8c-.1.3-.29.55-.42.85-.21.52-.25.94-.38,1.46-.02.1-.03.18-.14.22-.85-.3-1.46-.88-2.44-.87-1.23,0-1.89,1.05-2.97.87-.34-.06-.78-.51-1.19-.65-.67-.23-1.38-.25-2.06-.05-.78.24-1.09.89-2.08.69-.32-.07-.67-.43-1-.57-.65-.27-1.43-.32-2.11-.13s-1.06.75-1.81.73c-.7-.02-1.09-.56-1.72-.73s-1.36-.14-2,.07c-.76.26-1.01.92-2.02.61-.07-.02-1.3-.7-1.35-.75-.27-.29-.61-1.33-.66-1.75h2.06c.33,0,.58-.56.57-.88h1.84Z"/>
      <path class="cls-2" d="M7.86,1.85c2.79.1,5.79-.22,8.56-.03,2.32.16,2.76,2.66.69,3.5H7.42c-1.89-.68-1.57-3.28.44-3.47Z"/>
      <path class="cls-6" d="M4.38,35.71l1.71,1.57c1.46,1.16,3.06,2.22,4.85,2.81-.02.48.07.93.19,1.39h-6.43s-.31-.35-.31-.39v-5.38Z"/>
      <polygon class="cls-5" points="16.63 7.16 16.72 8.83 7.88 8.83 7.88 7.16 16.63 7.16"/>
      <path class="cls-3" d="M21.54,40.43c-.1.64-.33.99-1,1.06-2.21.21-4.76-.16-7-.01-.54-.11-.81-.51-.84-1.04h8.84Z"/>
      <path class="cls-5" d="M6.3,23.27h-2.01c.44-.5,1.58-.5,2.01,0Z"/>
      <path class="cls-1" d="M8.84,28.18c.01,1.11-1.78,1.25-1.75,0s1.74-1.01,1.75,0Z"/>
      <path class="cls-1" d="M22.39,20.4c1.48-.34,1.57,1.51.48,1.72s-1.42-1.5-.48-1.72Z"/>
      <path class="cls-1" d="M20.55,19.7c1.14-.22,1.45,1.46.48,1.71-1.3.33-1.62-1.49-.48-1.71Z"/>
      <path class="cls-1" d="M27.12,21.01c1.2-.26,1.47,1.49.49,1.72-1.33.31-1.5-1.49-.49-1.72Z"/>
    </g>
  </g>
</svg>