<?xml version="1.0" encoding="UTF-8"?>
<svg id="Capa_2" data-name="Capa 2" xmlns="http://www.w3.org/2000/svg" viewBox="0 0 39.24 38.73">
  <defs>
    <style>
      .cls-1 {
        fill: #072c75;
      }

      .cls-2 {
        fill: #6cc349;
      }

      .cls-3 {
        fill: #af8a5e;
      }

      .cls-4 {
        fill: #fcd2a0;
      }

      .cls-5 {
        fill: #5ba13a;
      }

      .cls-6 {
        fill: #fdfdfd;
      }
    </style>
  </defs>
  <g id="Capa_1-2" data-name="Capa 1">
    <g>
      <path class="cls-1" d="M31.88,38.73H13.23c-.2-.29-.45-.47-.43-.86s.4-.75.81-.76h17.89c.81-.16,1.44-.59,1.68-1.4.18-.6.17-1.09-.13-1.65C23.75,24.51,14.29,15.06,4.75,5.75c-.11-.08-.24-.09-.36-.12-.51-.15-.91-.16-1.42.03-2.02.78-1.02,4.18-1.28,5.84-.06.36-.39.69-.75.71s-.8-.33-.86-.71c-.13-.84-.09-3.41,0-4.3s.59-1.85,1.24-2.43c.27-.24,1.08-.61,1.12-.66.04-.06.13-1.06.26-1.41C3.66.03,7.2-.83,9.4.89c.63.49,1.31,1.58,2.1,1.78,1.93.48,3.69-.31,5.22,1.57,1.24,1.52,1,3.43,3.36,3.75,1.85.25,3.04-.1,4.57,1.36,1.06,1.01,1,2.34,1.88,3.4,1.27,1.53,3.22,1.12,4.05,3.71.52,1.62-.55,3.02.44,4.41.85,1.18,2.66.96,3.63,2.84.84,1.63.21,2.28.25,3.74.07,2.62,3.84,2.1,4.27,4.67.37,2.19-1.13,3.61-2.95,4.43-.57.26-1.46.43-1.91.68-.42.23-.72.81-1.29,1.08-.37.18-.8.21-1.15.41ZM4.28,3.26c-.08.2-.28.37-.22.65.73-.01,1.41.34,1.98.77.47.36,2.03,2.14,2.31,2.23.25.07,1.37-.11,1.81-.09,1.25.05,3.25.6,4.36,1.19,1.24.66,2.79,2.17,3.56,3.34.76,1.17,1.09,2.38,1.56,3.67l8.36,4.85c.92.75,1.13,3.33,1.36,4.52.03.14.13.27.15.33.19.96.34,3.34.71,4.09.18.36,1.5,1.45,1.88,1.84.62.64,1.68,1.59,2.16,2.26s.73,1.49.65,2.37c.58-.05,1.07-.44,1.51-.75.42-.29.83-.5,1.05-1.05.74-1.85-1.39-2.08-2.44-2.78-.83-.55-1.61-1.81-1.72-2.81-.13-1.23.6-2.34-.14-3.53-.79-1.27-2.82-1.15-3.78-3.01-.83-1.62-.11-2.6-.3-4.12-.22-1.77-2.36-1.93-3.4-2.96-1.17-1.15-1.29-2.88-2.26-3.78-1.82-1.69-4.57.18-6.46-2.49-.64-.9-1.21-2.89-2.22-3.28-1.2-.46-2.77-.12-4.09-.65-1.79-.73-1.93-2.64-4.26-2.42-1.04.1-1.72.68-2.1,1.62ZM18.08,16.63c-.11-4.44-3.76-8.05-8.19-8.19l8.19,8.19ZM28.11,26.65l-.89-4.99c-.14-.48-.72-.77-1.13-1.03-2.03-1.3-4.33-2.4-6.39-3.69.08.46-.28.94,0,1.35l8.41,8.35Z"/>
      <path class="cls-1" d="M.94,13.83c.36,0,.48.18.7.43l.06,20.86c.07.67.36,1.28.93,1.65.09.06.69.34.74.34h7.22c.22,0,.59.5.59.75,0,.44-.28.7-.65.86H2.99c-.45-.27-.95-.38-1.39-.71-.9-.67-1.4-1.69-1.51-2.8V14.63c.02-.49.37-.81.86-.81Z"/>
      <path class="cls-6" d="M12.8,37.86c-.02.4.23.57.43.86h-2.69c.37-.17.65-.42.65-.86h1.62Z"/>
      <path class="cls-3" d="M4.39,5.63l.11,9.59c-.24.33-.32.87,0,1.19l-.11,6.14c-.33.35-1.28,1.24-1.3,1.67-.05.77.66,1.03,1.3.81v4.85c-.39.46-.6.72-.29,1.32.04.08.23.29.29.3-.13,1.61.06,3.25,1.73,3.93,1.31.53,5.73.29,7.38.27.18,0,.48.07.59-.11.15.55,1.17.54,1.51.11h17.57c-.24.81-.87,1.24-1.68,1.39H13.61c-.41.01-.78.35-.81.76h-1.62c0-.26-.37-.75-.59-.75H3.37s-.64-.28-.74-.34c-.58-.37-.86-.98-.93-1.65l-.06-20.86c-.21-.25-.34-.43-.7-.43v-1.62c.36-.01.69-.35.75-.71.26-1.66-.74-5.06,1.28-5.84.51-.2.91-.18,1.42-.03Z"/>
      <path class="cls-4" d="M33.17,35.71H15.6l7.92-7.98c.57-.87-.29-1.78-1.13-1.13l-8.19,8.19c-.12.18-.16.62-.1.81-.11.18-.41.11-.59.11-1.66.02-6.08.26-7.38-.27-1.67-.68-1.86-2.32-1.73-3.93.33.07.84,0,1.08-.27l10.62-10.62c.87-.89-.04-2.02-1.08-1.3l-10.62,10.56v-4.85l8.14-8.19c.78-.91-.36-1.93-1.23-1.12-2.24,2.33-4.67,4.51-6.91,6.84l.11-6.14c.29.29.75.26,1.07.05.36-.23,3.08-2.96,3.35-3.34.55-.78-.15-1.61-.94-1.27l-3.48,3.37-.11-9.59c.12.04.25.04.36.12,9.54,9.31,19,18.76,28.3,28.3.3.56.3,1.05.13,1.65ZM19.02,22.8c-.16.04-.29.13-.4.24l-10.78,10.78c-.68.87.37,1.84,1.19,1.08l10.89-10.88c.34-.76-.02-1.43-.9-1.22ZM26.35,30.01c-.17.04-.27.15-.4.25-.44.33-3.02,2.89-3.28,3.29-.49.77.22,1.59,1.08,1.18.34-.16,3.06-2.86,3.33-3.25.53-.77.2-1.67-.72-1.48Z"/>
      <path class="cls-5" d="M36.41,34.52c-.36-.83-.93-1.21-1.72-1.57-.11-.05-.38-.25-.44-.05-.48-.68-1.53-1.63-2.16-2.26l.33-2.64c-.12-1.74-1.26-2.88-2.92-3.29-.01-.06-.12-.19-.15-.33-.24-1.19-.45-3.77-1.36-4.52-.02-.73-.38-1.46-.86-2-.92-1.04-2.28-1.03-3.24-2.26-1.13-1.45-.77-3.05-2.8-3.99-.76-.35-2.2-.46-3.02-.26-.77-1.18-2.32-2.68-3.56-3.34-.49-2.2-2.91-1.8-4.58-2.05s-1.82-1.08-2.96-1.99c-.71-.57-1.8-.93-2.7-.7.38-.93,1.06-1.52,2.1-1.62,2.33-.22,2.47,1.7,4.26,2.42,1.32.53,2.89.19,4.09.65,1.02.39,1.58,2.37,2.22,3.28,1.89,2.67,4.64.8,6.46,2.49.97.9,1.08,2.63,2.26,3.78,1.05,1.03,3.18,1.18,3.4,2.96.19,1.52-.52,2.5.3,4.12.95,1.87,2.99,1.74,3.78,3.01.73,1.19,0,2.3.14,3.53.11,1,.89,2.26,1.72,2.81,1.05.7,3.19.93,2.44,2.78-.22.55-.63.76-1.05,1.05Z"/>
      <path class="cls-2" d="M28,19.86l-8.36-4.85c-.47-1.29-.8-2.5-1.56-3.67.82-.2,2.26-.09,3.02.26,2.03.94,1.67,2.54,2.8,3.99.96,1.23,2.31,1.23,3.24,2.26.48.54.84,1.27.86,2Z"/>
      <path class="cls-4" d="M28.11,26.65l-8.41-8.35c-.27-.41.09-.89,0-1.35,2.06,1.28,4.36,2.38,6.39,3.69.41.26.98.55,1.13,1.03l.89,4.99Z"/>
      <path class="cls-4" d="M18.08,16.63l-8.19-8.19c4.43.14,8.08,3.75,8.19,8.19Z"/>
      <path class="cls-2" d="M14.52,8c-1.11-.59-3.11-1.14-4.36-1.19-.45-.02-1.57.17-1.81.09-.28-.08-1.83-1.87-2.31-2.23-.57-.43-1.25-.79-1.98-.77-.06-.28.13-.45.22-.65.89-.23,1.98.13,2.7.7,1.14.92,1.27,1.74,2.96,1.99s4.09-.15,4.58,2.05Z"/>
      <path class="cls-2" d="M32.1,30.64c-.38-.38-1.7-1.47-1.88-1.84-.36-.75-.51-3.13-.71-4.09,1.66.41,2.8,1.54,2.92,3.29l-.33,2.64Z"/>
      <path class="cls-2" d="M36.41,34.52c-.44.31-.93.71-1.51.75.09-.88-.15-1.66-.65-2.37.06-.21.33,0,.44.05.79.36,1.36.74,1.72,1.57Z"/>
      <path class="cls-1" d="M4.39,31.5c-.06-.01-.25-.23-.29-.3-.31-.6-.1-.86.29-1.32l10.62-10.56c1.04-.72,1.95.41,1.08,1.3l-10.62,10.62c-.24.27-.75.34-1.08.27Z"/>
      <path class="cls-1" d="M4.39,25.04c-.64.22-1.35-.04-1.3-.81.03-.43.97-1.32,1.3-1.67,2.24-2.33,4.67-4.5,6.91-6.84.87-.81,2.01.21,1.23,1.12l-8.14,8.19Z"/>
      <path class="cls-1" d="M15.6,35.71c-.34.43-1.36.44-1.51-.11-.05-.2-.02-.64.1-.81l8.19-8.19c.84-.65,1.71.26,1.13,1.13l-7.92,7.98Z"/>
      <path class="cls-1" d="M4.5,16.41c-.32-.32-.24-.85,0-1.19l3.48-3.37c.8-.35,1.49.48.94,1.27-.27.38-2.99,3.11-3.35,3.34-.33.21-.78.24-1.07-.05Z"/>
      <path class="cls-1" d="M19.02,22.8c.88-.2,1.23.46.9,1.22l-10.89,10.88c-.82.76-1.87-.21-1.19-1.08l10.78-10.78c.11-.11.24-.21.4-.24Z"/>
      <path class="cls-1" d="M26.35,30.01c.92-.19,1.25.71.72,1.48-.27.39-2.99,3.09-3.33,3.25-.86.41-1.56-.42-1.08-1.18.26-.4,2.84-2.96,3.28-3.29.13-.1.23-.21.4-.25Z"/>
    </g>
  </g>
</svg>