<?xml version="1.0" encoding="UTF-8"?>
<svg id="Capa_2" data-name="Capa 2" xmlns="http://www.w3.org/2000/svg" viewBox="0 0 1352.38 728.91">
  <defs>
    <style>
      .cls-1 {
        fill: #f3ead7;
      }

      .cls-2 {
        fill: #b6a68c;
      }

      .cls-3 {
        fill: #f6eada;
        fill-rule: evenodd;
      }

      .cls-4 {
        fill: #a3b194;
      }

      .cls-5 {
        fill: #8a9f8a;
      }
    </style>
  </defs>
  <g id="Capa_1-2" data-name="Capa 1">
    <path class="cls-3" d="M1352.38,0v727.45H0v-345.51c75.19,66.65,172.9,106.91,279.71,106.91,143.47,0,270.52-72.64,348.64-184.29,30.7,3.64,61.92,5.51,93.56,5.51,254.41,0,481.51-120.86,630.47-310.07Z"/>
    <path class="cls-5" d="M1141.05,687.25c2.17-2.64,14.49-12.53,17.72-14.1,18.46-8.96,37.24-9.3,55.44.25-9.1-26.17-25.43-48.15-43.03-68.71-1.9-2.22-10.56-6.55-7.39-11.43,3.33-5.13,12.29,1.49,15.37,4.51,23.54,23.03,29.59,43.67,43.15,71.77.23.48,4.09,6.51,4.39,6.76,2.66,2.26,9.2,1.33,10.8-1.5,1.29-2.28.77-6.23.51-8.87-4.06-41.11-17.85-67.7-29.52-104.92-2.21-7.05-7.17-21.62,5.06-16.33,8.77,20.52,18.28,40.95,23.37,62.87l9.2,25.7c2.47-17.41,6.73-34.37,11.48-51.2,1.74-6.17,2.79-8.46,5.14-15.25,7.27-21.01,15.96-49.15,28.86-66.85,3.19-4.39,6.68-9.84,10.21-2.72-4.17,13.93-12.31,26.86-17.73,40.56-.99,2.51-6.14,16.03-6.1,17.21.03,1.04,4.55.17,2.75,3.53l-3.96-1.4c-8.81,29.33-19.61,58.79-19.96,89.96,1.18,1.47,6.95-5.53,7.9-6.63,11.59-13.45,19.32-26.73,34.03-37.62,16.64-12.31,25.17-6.27,9.08,8.06-14.46,12.88-34.54,30.84-43.07,49.3-.93,2.02-3.28,12.58-2.64,13.19.24.22,4.25.29,6.32,1.1,4.49,1.76,4.14,4.17,4.42,4.35,2.67,1.64,5.41-4.97,7.23-6.83,1.68-1.71,5.76-6.58,6.15-6.85.81-.55,2.7,1.38,3.6,1.02.17-.07.28-2.08,1.21-2.39,15.63-5.27,40.58-1.04,49.72,14.43,1.46,2.46-.14,4.11.15,4.62.26.45,2.71.98,4.01,3.34,3.09,5.59,5.01,18.11,4.99,24.58-.01,3.71-.81,16.47-4.66,16.61-49.37,2.32-99.03,1.71-148.34,0l1.99-2.77c-9.53-1.38-22.69,3.15-30.6-2.76-.8,4.87-4.74.24-8.65,1.37l1.34-5.52h-3.99s1.32,5.51,1.32,5.51l-25.26-1.39c-.15-3.42-.05-6.85.08-10.28.09-2.39,3.28-4.02-1.43-3.55,1.29-6.85,4.96-15.46,9.31-20.76ZM1174.3,719.1l-6.62-.72c2.27,3.13,3.13,3.47,6.62,2.07v-1.35Z"/>
    <path class="cls-4" d="M207.27,643.12h-7.93c4.45-27.59-9.66-60.66-36.5-36.84,6.04-30.59-16.75-85.21-42.21-40.15l-6.19,16.78c-3.76-22.11-17.06-52.22-37.93-58.14-25.05-7.09-29.4,24.16-27.05,45.01,1.57,13.89,7.32,28.43,12.6,40.98-29.74-15.81-43.78,15.62-26.51,42.16l9.85,10.85c-18.94-1.94-32.62,11.97-24.73,33.86,5.13,14.24,18.83,16.95,31.08,15.57-.01-4.2,1.13-12.32,2.98-15.95.78-1.53,2.24-1.88,2.39-2.17.17-.33-.78-1.4.09-3,5.46-10.05,20.34-12.79,29.66-9.37.56.2.62,1.51.72,1.55.54.23,1.67-1.02,2.15-.66.23.17,2.67,3.34,3.67,4.45,1.09,1.2,2.72,5.5,4.31,4.43.17-.11-.04-1.68,2.64-2.82,1.23-.53,3.63-.57,3.77-.72.39-.39-1.02-7.25-1.57-8.56-5.09-11.98-17.07-23.64-25.69-32-9.59-9.3-4.51-13.23,5.42-5.23,8.77,7.07,13.38,15.68,20.3,24.42.57.71,4.01,5.26,4.71,4.31-.21-20.24-6.65-39.36-11.91-58.4l-2.36.91c-1.08-2.18,1.62-1.61,1.64-2.29.02-.77-3.05-9.55-3.64-11.17-3.23-8.89-8.09-17.29-10.58-26.33,2.1-4.62,4.18-1.08,6.09,1.77,7.69,11.5,12.87,29.76,17.21,43.4,1.4,4.41,2.03,5.9,3.07,9.9,2.83,10.92,5.37,21.93,6.85,33.23l5.49-16.68c3.04-14.23,8.7-27.49,13.94-40.82,7.3-3.43,4.34,6.02,3.02,10.6-6.96,24.16-15.18,41.42-17.61,68.11-.16,1.71-.47,4.28.31,5.76.96,1.83,4.86,2.44,6.44.97.18-.17,2.48-4.08,2.62-4.39,8.09-18.24,11.7-31.64,25.74-46.59,1.84-1.96,7.18-6.26,9.17-2.93,1.89,3.17-3.27,5.98-4.41,7.42-10.5,13.34-20.24,27.62-25.67,44.6,10.86-6.2,22.06-5.98,33.07-.16,1.93,1.02,9.28,7.44,10.57,9.15l28.57-.9c-.77-3.03-3.45-19.81-3.24-22.04,1-10.45,2.48-21.92,5.62-31.87Z"/>
    <path class="cls-5" d="M176.32,697.92c-1.29-1.72-8.64-8.13-10.57-9.15-11.01-5.82-22.21-6.04-33.07.16,5.43-16.99,15.17-31.26,25.67-44.6,1.14-1.44,6.3-4.25,4.41-7.42-1.99-3.33-7.33.97-9.17,2.93-14.04,14.95-17.65,28.35-25.74,46.59-.14.31-2.44,4.22-2.62,4.39-1.58,1.47-5.49.86-6.44-.97-.77-1.48-.46-4.04-.31-5.76,2.42-26.69,10.64-43.95,17.61-68.11,1.32-4.58,4.28-14.03-3.02-10.6-5.23,13.32-10.9,26.59-13.94,40.82l-5.49,16.68c-1.48-11.3-4.01-22.31-6.85-33.23-1.04-4.01-1.66-5.49-3.07-9.9-4.34-13.64-9.52-31.91-17.21-43.4-1.91-2.85-3.99-6.39-6.09-1.77,2.49,9.04,7.34,17.44,10.58,26.33.59,1.63,3.66,10.41,3.64,11.17-.02.68-2.72.11-1.64,2.29l2.36-.91c5.26,19.04,11.7,38.17,11.91,58.4-.7.96-4.14-3.59-4.71-4.31-6.91-8.73-11.52-17.35-20.3-24.42-9.92-7.99-15.01-4.07-5.42,5.23,8.62,8.36,20.6,20.02,25.69,32,.56,1.31,1.96,8.17,1.57,8.56-.14.14-2.54.19-3.77.72-2.68,1.14-2.47,2.71-2.64,2.82-1.59,1.07-3.22-3.23-4.31-4.43-1-1.11-3.44-4.27-3.67-4.45-.48-.36-1.61.9-2.15.66-.1-.04-.16-1.35-.72-1.55-9.32-3.42-24.2-.68-29.66,9.37-.87,1.6.08,2.67-.09,3-.15.29-1.62.63-2.39,2.17-1.84,3.63-2.99,11.76-2.98,15.95,0,2.41.48,10.69,2.78,10.78,29.45,1.5,59.07,1.11,88.47,0l-1.19-1.8c5.69-.89,13.53,2.04,18.25-1.79.48,3.16,2.83.16,5.16.89l-.8-3.58h2.38s-.79,3.58-.79,3.58l15.06-.9c.09-2.22.03-4.44-.05-6.67-.05-1.55-1.96-2.61.85-2.3-.77-4.45-2.96-10.03-5.55-13.48ZM156.49,718.59l3.95-.47c-1.35,2.03-1.87,2.25-3.95,1.35v-.88Z"/>
    <g>
      <path class="cls-2" d="M837.84,661.06c-14.62-15.42,17.74-24.88,28.17-25.79,12.28-1.08,39.35,2.68,41.81,18.74,2.65,17.34-5.4,32.79-23.38,33.74-17.44.92-17.05-12.48-25.8-18.56-5.67-3.94-15.7-2.77-20.79-8.13Z"/>
      <path class="cls-2" d="M924.82,638.34c21.07-4.06,26.77,12.78,8.62,18.66-23.22,7.52-26.76-15.17-8.62-18.66Z"/>
      <path class="cls-2" d="M917.55,676.41c-8.51-9.45,6.99-18.12,15.68-17.02,2.44.31,10.91,3.49,11.69,5.83,5.01,14.99-21.24,18.01-27.37,11.19Z"/>
      <path class="cls-2" d="M900.85,620.32c4.21-.98,12.86-.97,16.32,1.8,9.8,7.86-7.1,23.35-19.91,13.8-6.64-4.95-3.64-13.91,3.59-15.6Z"/>
      <path class="cls-2" d="M874.27,612.05c23.17-4.94,18.27,18.41,1.2,17.21-12.22-.86-13.56-14.57-1.2-17.21Z"/>
      <path class="cls-1" d="M874.27,612.05c-12.36,2.64-11.02,16.34,1.2,17.21,17.07,1.2,21.97-22.15-1.2-17.21Z"/>
      <path class="cls-1" d="M900.85,620.32c-7.23,1.69-10.23,10.65-3.59,15.6,12.81,9.56,29.71-5.94,19.91-13.8-3.46-2.77-12.11-2.78-16.32-1.8Z"/>
      <path class="cls-1" d="M837.84,661.06c5.09,5.37,15.12,4.2,20.79,8.13,8.75,6.07,8.37,19.48,25.8,18.56,17.99-.95,26.04-16.4,23.38-33.74-2.46-16.06-29.53-19.82-41.81-18.74-10.42.92-42.79,10.37-28.17,25.79Z"/>
      <path class="cls-1" d="M924.82,638.34c-18.13,3.49-14.59,26.18,8.62,18.66,18.14-5.88,12.44-22.71-8.62-18.66Z"/>
      <path class="cls-1" d="M917.55,676.41c6.13,6.81,32.38,3.8,27.37-11.19-.78-2.33-9.24-5.52-11.69-5.83-8.69-1.1-24.19,7.56-15.68,17.02Z"/>
      <g>
        <path class="cls-2" d="M837.84,661.06c-14.62-15.42,17.74-24.88,28.17-25.79,12.28-1.08,39.35,2.68,41.81,18.74,2.65,17.34-5.4,32.79-23.38,33.74-17.44.92-17.05-12.48-25.8-18.56-5.67-3.94-15.7-2.77-20.79-8.13Z"/>
        <path class="cls-2" d="M924.82,638.34c21.07-4.06,26.77,12.78,8.62,18.66-23.22,7.52-26.76-15.17-8.62-18.66Z"/>
        <path class="cls-2" d="M917.55,676.41c-8.51-9.45,6.99-18.12,15.68-17.02,2.44.31,10.91,3.49,11.69,5.83,5.01,14.99-21.24,18.01-27.37,11.19Z"/>
        <path class="cls-2" d="M900.85,620.32c4.21-.98,12.86-.97,16.32,1.8,9.8,7.86-7.1,23.35-19.91,13.8-6.64-4.95-3.64-13.91,3.59-15.6Z"/>
      </g>
    </g>
    <g>
      <path class="cls-2" d="M622.8,661.06c-14.62-15.42,17.74-24.88,28.17-25.79,12.28-1.08,39.35,2.68,41.81,18.74,2.65,17.34-5.4,32.79-23.38,33.74-17.44.92-17.05-12.48-25.8-18.56-5.67-3.94-15.7-2.77-20.79-8.13Z"/>
      <path class="cls-2" d="M709.78,638.34c21.07-4.06,26.77,12.78,8.62,18.66-23.22,7.52-26.76-15.17-8.62-18.66Z"/>
      <path class="cls-2" d="M702.51,676.41c-8.51-9.45,6.99-18.12,15.68-17.02,2.44.31,10.91,3.49,11.69,5.83,5.01,14.99-21.24,18.01-27.37,11.19Z"/>
      <path class="cls-2" d="M685.82,620.32c4.21-.98,12.86-.97,16.32,1.8,9.8,7.86-7.1,23.35-19.91,13.8-6.64-4.95-3.64-13.91,3.59-15.6Z"/>
      <path class="cls-2" d="M659.23,612.05c23.17-4.94,18.27,18.41,1.2,17.21-12.22-.86-13.56-14.57-1.2-17.21Z"/>
      <path class="cls-1" d="M659.23,612.05c-12.36,2.64-11.02,16.34,1.2,17.21,17.07,1.2,21.97-22.15-1.2-17.21Z"/>
      <path class="cls-1" d="M685.82,620.32c-7.23,1.69-10.23,10.65-3.59,15.6,12.81,9.56,29.71-5.94,19.91-13.8-3.46-2.77-12.11-2.78-16.32-1.8Z"/>
      <path class="cls-1" d="M622.8,661.06c5.09,5.37,15.12,4.2,20.79,8.13,8.75,6.07,8.37,19.48,25.8,18.56,17.99-.95,26.04-16.4,23.38-33.74-2.46-16.06-29.53-19.82-41.81-18.74-10.42.92-42.79,10.37-28.17,25.79Z"/>
      <path class="cls-1" d="M709.78,638.34c-18.13,3.49-14.59,26.18,8.62,18.66,18.14-5.88,12.44-22.71-8.62-18.66Z"/>
      <path class="cls-1" d="M702.51,676.41c6.13,6.81,32.38,3.8,27.37-11.19-.78-2.33-9.24-5.52-11.69-5.83-8.69-1.1-24.19,7.56-15.68,17.02Z"/>
      <g>
        <path class="cls-2" d="M622.8,661.06c-14.62-15.42,17.74-24.88,28.17-25.79,12.28-1.08,39.35,2.68,41.81,18.74,2.65,17.34-5.4,32.79-23.38,33.74-17.44.92-17.05-12.48-25.8-18.56-5.67-3.94-15.7-2.77-20.79-8.13Z"/>
        <path class="cls-2" d="M709.78,638.34c21.07-4.06,26.77,12.78,8.62,18.66-23.22,7.52-26.76-15.17-8.62-18.66Z"/>
        <path class="cls-2" d="M702.51,676.41c-8.51-9.45,6.99-18.12,15.68-17.02,2.44.31,10.91,3.49,11.69,5.83,5.01,14.99-21.24,18.01-27.37,11.19Z"/>
        <path class="cls-2" d="M685.82,620.32c4.21-.98,12.86-.97,16.32,1.8,9.8,7.86-7.1,23.35-19.91,13.8-6.64-4.95-3.64-13.91,3.59-15.6Z"/>
      </g>
    </g>
    <g>
      <path class="cls-2" d="M931.14,525.67c-14.62-15.42,17.74-24.88,28.17-25.79,12.28-1.08,39.35,2.68,41.81,18.74,2.65,17.34-5.4,32.79-23.38,33.74-17.44.92-17.05-12.48-25.8-18.56-5.67-3.94-15.7-2.77-20.79-8.13Z"/>
      <path class="cls-2" d="M1018.13,502.95c21.07-4.06,26.77,12.78,8.62,18.66-23.22,7.52-26.76-15.17-8.62-18.66Z"/>
      <path class="cls-2" d="M1010.85,541.02c-8.51-9.45,6.99-18.12,15.68-17.02,2.44.31,10.91,3.49,11.69,5.83,5.01,14.99-21.24,18.01-27.37,11.19Z"/>
      <path class="cls-2" d="M994.16,484.93c4.21-.98,12.86-.97,16.32,1.8,9.8,7.86-7.1,23.35-19.91,13.8-6.64-4.95-3.64-13.91,3.59-15.6Z"/>
      <path class="cls-2" d="M967.57,476.66c23.17-4.94,18.27,18.41,1.2,17.21-12.22-.86-13.56-14.57-1.2-17.21Z"/>
      <path class="cls-1" d="M967.57,476.66c-12.36,2.64-11.02,16.34,1.2,17.21,17.07,1.2,21.97-22.15-1.2-17.21Z"/>
      <path class="cls-1" d="M994.16,484.93c-7.23,1.69-10.23,10.65-3.59,15.6,12.81,9.56,29.71-5.94,19.91-13.8-3.46-2.77-12.11-2.78-16.32-1.8Z"/>
      <path class="cls-1" d="M931.14,525.67c5.09,5.37,15.12,4.2,20.79,8.13,8.75,6.07,8.37,19.48,25.8,18.56,17.99-.95,26.04-16.4,23.38-33.74-2.46-16.06-29.53-19.82-41.81-18.74-10.42.92-42.79,10.37-28.17,25.79Z"/>
      <path class="cls-1" d="M1018.13,502.95c-18.13,3.49-14.59,26.18,8.62,18.66,18.14-5.88,12.44-22.71-8.62-18.66Z"/>
      <path class="cls-1" d="M1010.85,541.02c6.13,6.81,32.38,3.8,27.37-11.19-.78-2.33-9.24-5.52-11.69-5.83-8.69-1.1-24.19,7.56-15.68,17.02Z"/>
      <g>
        <path class="cls-2" d="M931.14,525.67c-14.62-15.42,17.74-24.88,28.17-25.79,12.28-1.08,39.35,2.68,41.81,18.74,2.65,17.34-5.4,32.79-23.38,33.74-17.44.92-17.05-12.48-25.8-18.56-5.67-3.94-15.7-2.77-20.79-8.13Z"/>
        <path class="cls-2" d="M1018.13,502.95c21.07-4.06,26.77,12.78,8.62,18.66-23.22,7.52-26.76-15.17-8.62-18.66Z"/>
        <path class="cls-2" d="M1010.85,541.02c-8.51-9.45,6.99-18.12,15.68-17.02,2.44.31,10.91,3.49,11.69,5.83,5.01,14.99-21.24,18.01-27.37,11.19Z"/>
        <path class="cls-2" d="M994.16,484.93c4.21-.98,12.86-.97,16.32,1.8,9.8,7.86-7.1,23.35-19.91,13.8-6.64-4.95-3.64-13.91,3.59-15.6Z"/>
      </g>
    </g>
  </g>
</svg>