<?xml version="1.0" encoding="UTF-8"?>
<!-- Generator: Adobe Illustrator 26.3.1, SVG Export Plug-In . SVG Version: 6.00 Build 0)  -->
<svg version="1.1" id="Ebene_1" xmlns="http://www.w3.org/2000/svg" xmlns:xlink="http://www.w3.org/1999/xlink" x="0px" y="0px" viewBox="0 0 145.2 73.89" style="enable-background:new 0 0 145.2 73.89;" xml:space="preserve">
<style type="text/css">
	.st0{fill:#E30613;}
	.st1{fill:#5B8D20;}
	.st2{fill:#95C11F;}
	.st3{fill:#F39200;}
	.st4{fill:#0078BD;}
	.st5{fill:#83D0F5;}
	.st6{fill:#1D1D1B;}
</style>
<g>
	<g>
		<path class="st0" d="M17.65,66.45c-1.09-0.59-1.33-1.12-0.38-1.02c0.95,0.09,2.65,0.96,3.63,1.82c0.99,0.87,0.94,1.2,0.11,0.83    C20.17,67.71,18.75,67.04,17.65,66.45z"/>
		<path class="st1" d="M12.71,62.47c-1.04-1.07-1.13-2.14-0.11-2.29c1.02-0.15,2.74,0.84,3.71,2.12c0.98,1.29,0.87,2.21-0.09,2.14    C15.27,64.37,13.75,63.54,12.71,62.47z"/>
		<path class="st2" d="M1.1,34.44c-0.02-1.49,0.46-3.15,1.09-3.88c0.63-0.73,1.35-0.15,1.57,1.45c0.22,1.6-0.3,3.51-1.12,4.13    C1.82,36.76,1.13,35.93,1.1,34.44z"/>
		<path class="st3" d="M1.78,28.13C2.13,26.94,2.67,25.46,3,24.6c0.33-0.85,0.59-0.65,0.51,0.66c-0.08,1.31-0.68,3.13-1.28,3.86    C1.63,29.86,1.43,29.32,1.78,28.13z"/>
		<path class="st3" d="M27.17,69.94c1.23,0.1,3.03,0.82,3.82,1.53c0.8,0.71,0.36,0.96-0.77,0.58c-1.13-0.38-2.6-1-3.5-1.43    C25.83,70.18,25.94,69.84,27.17,69.94z"/>
		<path class="st2" d="M22.41,67.39c-0.97-0.91-0.8-1.84,0.53-1.98c1.33-0.14,3.25,0.72,4.13,1.86c0.88,1.14,0.45,1.94-0.79,1.86    C25.03,69.03,23.38,68.29,22.41,67.39z"/>
		<path class="st3" d="M17.93,62.11c-0.96-1.32-0.72-2.72,0.66-3.06c1.38-0.34,3.35,0.64,4.27,2.14c0.92,1.5,0.45,2.81-0.88,2.96    C20.65,64.31,18.9,63.43,17.93,62.11z"/>
		<path class="st0" d="M5.05,31.01c-0.25-1.62,0.36-3.48,1.42-4.31c1.05-0.83,2.3-0.23,2.72,1.48c0.41,1.7-0.28,3.79-1.5,4.53    C6.46,33.44,5.3,32.62,5.05,31.01z"/>
		<path class="st2" d="M4.48,24.11c0.04-1.33,0.69-3.02,1.5-3.96c0.82-0.94,1.7-0.68,1.88,0.75c0.18,1.42-0.57,3.4-1.61,4.23    C5.21,25.98,4.44,25.44,4.48,24.11z"/>
		<path class="st0" d="M6.72,15.28c0.53-1.06,1.01-1.2,0.95-0.13c-0.06,1.06-0.82,2.84-1.62,3.79c-0.8,0.95-1.12,0.78-0.79-0.16    C5.59,17.82,6.19,16.35,6.72,15.28z"/>
		<path class="st2" d="M34.11,69.78c1.54-0.2,3.47,0.45,4.15,1.41c0.68,0.95-0.07,1.71-1.51,1.71c-1.45,0-3.12-0.59-3.9-1.34    C32.07,70.81,32.56,69.98,34.11,69.78z"/>
		<path class="st4" d="M29.05,67.03c-0.87-1.17-0.36-2.48,1.28-2.87c1.63-0.38,3.7,0.44,4.49,1.77c0.79,1.34,0.06,2.56-1.49,2.77    C31.77,68.92,29.92,68.19,29.05,67.03z"/>
		<path class="st0" d="M24.94,60.7c-0.9-1.53-0.36-3.24,1.33-3.77c1.68-0.53,3.84,0.42,4.69,2.08c0.86,1.66,0.13,3.29-1.51,3.69    C27.81,63.1,25.85,62.22,24.94,60.7z"/>
		<path class="st3" d="M11,27.05c-0.44-1.72,0.33-3.73,1.77-4.61c1.44-0.88,3.11-0.24,3.68,1.54c0.57,1.78-0.28,3.97-1.84,4.79    C13.04,29.59,11.44,28.76,11,27.05z"/>
		<path class="st0" d="M9.43,19.66c-0.21-1.44,0.58-3.26,1.83-4.21c1.25-0.94,2.63-0.6,3.02,0.9c0.39,1.5-0.5,3.54-1.92,4.43    C10.94,21.68,9.64,21.1,9.43,19.66z"/>
		<path class="st2" d="M10.72,10.07c1.02-1.02,2.09-1.02,2.28,0.14c0.2,1.15-0.7,2.98-1.94,3.93c-1.24,0.95-2.17,0.72-2.15-0.36    C8.93,12.69,9.7,11.1,10.72,10.07z"/>
		<path class="st3" d="M66.01,56.57c1.24-0.95,2.17-0.72,2.15,0.36c-0.02,1.08-0.79,2.68-1.81,3.7c-1.02,1.02-2.09,1.01-2.28-0.14    C63.88,59.34,64.78,57.52,66.01,56.57z"/>
		<path class="st1" d="M62.8,54.34c-0.39-1.5,0.5-3.54,1.92-4.43c1.43-0.88,2.72-0.31,2.93,1.13c0.21,1.44-0.58,3.26-1.83,4.21    C64.56,56.19,63.18,55.84,62.8,54.34z"/>
		<path class="st0" d="M60.63,46.72c-0.57-1.78,0.28-3.98,1.84-4.79c1.57-0.82,3.16,0.01,3.6,1.72c0.44,1.72-0.33,3.73-1.77,4.61    C62.87,49.14,61.19,48.5,60.63,46.72z"/>
		<path class="st0" d="M71.03,51.77c0.8-0.95,1.12-0.78,0.79,0.16c-0.33,0.95-0.94,2.42-1.47,3.49c-0.53,1.06-1.01,1.2-0.95,0.13    C69.47,54.5,70.24,52.72,71.03,51.77z"/>
		<path class="st5" d="M69.21,49.8c-0.18-1.42,0.57-3.4,1.61-4.23c1.04-0.84,1.81-0.3,1.77,1.03c-0.04,1.33-0.69,3.02-1.5,3.96    C70.27,51.49,69.39,51.23,69.21,49.8z"/>
		<path class="st5" d="M67.9,42.53c-0.42-1.7,0.28-3.79,1.5-4.53c1.22-0.74,2.38,0.08,2.63,1.69c0.25,1.62-0.36,3.48-1.42,4.31    C69.56,44.84,68.31,44.24,67.9,42.53z"/>
		<path class="st1" d="M73.56,45.44c0.08-1.31,0.68-3.13,1.28-3.86c0.61-0.74,0.81-0.2,0.46,0.99c-0.36,1.19-0.89,2.67-1.22,3.53    C73.74,46.95,73.48,46.75,73.56,45.44z"/>
		<path class="st0" d="M73.31,38.7c-0.22-1.6,0.3-3.51,1.12-4.13c0.82-0.62,1.51,0.21,1.54,1.7c0.02,1.49-0.46,3.15-1.09,3.88    C74.26,40.87,73.54,40.3,73.31,38.7z"/>
		<path class="st3" d="M66.93,29.82c1.33-0.64,2.79,0.35,3.31,2.12c0.51,1.77-0.03,3.72-1.26,4.45c-1.23,0.73-2.78-0.11-3.4-1.98    C64.96,32.54,65.6,30.45,66.93,29.82z"/>
		<path class="st5" d="M62.35,25.69c-0.78-1.89-0.21-3.86,1.17-4.37c1.39-0.51,3.05,0.53,3.78,2.3c0.73,1.77,0.28,3.69-1.06,4.32    C64.91,28.57,63.13,27.58,62.35,25.69z"/>
		<path class="st4" d="M72.62,26.95c0.96-0.5,2.03,0.49,2.4,2.12c0.36,1.64-0.01,3.38-0.85,3.99c-0.83,0.61-1.95-0.23-2.44-1.98    C71.24,29.33,71.66,27.44,72.62,26.95z"/>
		<path class="st0" d="M68.93,22.95c-0.72-1.75-0.42-3.47,0.61-3.82c1.03-0.35,2.37,0.68,3.04,2.3c0.66,1.62,0.43,3.3-0.54,3.79    C71.08,25.7,69.65,24.71,68.93,22.95z"/>
		<path class="st0" d="M42.28,68.12c1.72-0.48,3.63,0.07,4.19,1.18c0.56,1.11-0.36,2.28-1.98,2.63c-1.62,0.35-3.38-0.13-4.04-1.11    C39.79,69.84,40.56,68.61,42.28,68.12z"/>
		<path class="st2" d="M37.14,65.34c-0.77-1.36-0.01-3,1.8-3.6c1.81-0.6,3.91,0.16,4.59,1.62c0.69,1.46-0.22,3.01-1.94,3.5    C39.86,67.36,37.91,66.7,37.14,65.34z"/>
		<path class="st4" d="M33.39,58.24c-0.85-1.68-0.07-3.64,1.8-4.33c1.87-0.69,4.09,0.23,4.88,1.99c0.79,1.76-0.1,3.64-1.92,4.25    C36.33,60.75,34.23,59.92,33.39,58.24z"/>
		<path class="st1" d="M16.34,15.14c-0.41-1.51,0.5-3.35,2.07-4.23c1.57-0.87,3.3-0.42,3.85,1.1c0.55,1.52-0.4,3.54-2.1,4.39    C18.45,17.26,16.75,16.64,16.34,15.14z"/>
		<path class="st5" d="M16.88,5.28c1.39-0.89,2.87-0.71,3.26,0.47c0.39,1.18-0.57,2.92-2.13,3.8c-1.56,0.87-2.98,0.54-3.2-0.62    C14.58,7.76,15.49,6.17,16.88,5.28z"/>
		<path class="st5" d="M50.88,65.15c1.72-0.71,3.47-0.27,3.89,0.9c0.41,1.18-0.56,2.62-2.15,3.29c-1.6,0.66-3.31,0.32-3.85-0.8    C48.23,67.41,49.16,65.86,50.88,65.15z"/>
		<path class="st1" d="M45.99,62.48c-0.67-1.47,0.24-3.35,2.08-4.12c1.84-0.76,3.81-0.08,4.38,1.44c0.57,1.52-0.4,3.27-2.13,3.99    C48.59,64.51,46.67,63.95,45.99,62.48z"/>
		<path class="st0" d="M42.65,54.91c-0.78-1.77,0.12-3.91,2.04-4.7c1.92-0.8,4.07,0.08,4.77,1.88c0.7,1.8-0.24,3.83-2.09,4.6    C45.53,57.45,43.43,56.68,42.65,54.91z"/>
		<path class="st3" d="M24.63,10.9c-0.57-1.52,0.4-3.27,2.13-3.99c1.73-0.72,3.66-0.16,4.33,1.32c0.67,1.47-0.24,3.35-2.08,4.12    C27.17,13.1,25.19,12.42,24.63,10.9z"/>
		<path class="st0" d="M24.46,1.37c1.6-0.66,3.31-0.32,3.85,0.8c0.54,1.12-0.39,2.67-2.11,3.38c-1.72,0.71-3.48,0.27-3.89-0.9    C21.9,3.48,22.87,2.03,24.46,1.37z"/>
		<path class="st0" d="M59.07,61.17c1.56-0.87,2.98-0.54,3.2,0.62c0.22,1.16-0.68,2.75-2.07,3.64c-1.39,0.89-2.87,0.71-3.26-0.47    C56.55,63.79,57.51,62.04,59.07,61.17z"/>
		<path class="st4" d="M54.82,58.69c-0.55-1.52,0.4-3.54,2.1-4.39c1.7-0.86,3.41-0.24,3.82,1.27c0.41,1.51-0.5,3.35-2.07,4.23    C57.1,60.67,55.36,60.22,54.82,58.69z"/>
		<path class="st5" d="M51.98,50.96c-0.69-1.8,0.23-4.02,2.05-4.86c1.81-0.84,3.75,0,4.34,1.79c0.59,1.79-0.31,3.85-2.02,4.71    C54.63,53.46,52.67,52.77,51.98,50.96z"/>
		<path class="st5" d="M31.32,45.23c1.9-0.76,4.17,0.24,5.01,2.2c0.84,1.96-0.04,4.09-1.92,4.79c-1.88,0.69-4.06-0.26-4.92-2.16    C28.62,48.16,29.42,45.98,31.32,45.23z"/>
		<path class="st0" d="M25.54,40.96c-0.83-2,0-4.25,1.88-5.06c1.88-0.8,4.13,0.18,4.97,2.23c0.85,2.04-0.04,4.32-1.94,5.08    C28.55,43.97,26.37,42.95,25.54,40.96z"/>
		<path class="st2" d="M41,41.3c1.96-0.81,4.22,0.17,5.01,2.15c0.8,1.98-0.13,4.21-2.05,5c-1.92,0.8-4.15-0.12-4.99-2.09    C38.14,44.4,39.04,42.12,41,41.3z"/>
		<path class="st3" d="M35.06,37.02c-0.85-2.04,0.06-4.36,2.03-5.18c1.97-0.81,4.25,0.18,5.09,2.23c0.85,2.04-0.06,4.36-2.03,5.18    C38.19,40.06,35.91,39.06,35.06,37.02z"/>
		<path class="st3" d="M8.5,53.51c1.03-0.33,2.66,0.71,3.55,2.29c0.89,1.59,0.7,2.97-0.33,3.13c-1.02,0.16-2.52-0.81-3.42-2.22    C7.4,55.3,7.46,53.84,8.5,53.51z"/>
		<path class="st1" d="M4.62,49.58c-0.67-1.61-0.45-3.29,0.52-3.77c0.97-0.48,2.41,0.52,3.13,2.27c0.73,1.75,0.43,3.46-0.6,3.8    C6.65,52.22,5.3,51.19,4.62,49.58z"/>
		<path class="st3" d="M2.13,41.94c-0.38-1.64-0.01-3.38,0.83-3.99c0.84-0.61,1.97,0.24,2.47,2c0.5,1.75,0.09,3.64-0.88,4.13    C3.59,44.57,2.51,43.58,2.13,41.94z"/>
		<path class="st0" d="M14.55,51.51c1.39-0.49,3.32,0.54,4.2,2.3c0.88,1.76,0.38,3.45-1,3.8c-1.39,0.35-3.15-0.65-4.04-2.26    C12.82,53.73,13.16,52.01,14.55,51.51z"/>
		<path class="st5" d="M9.91,47.41c-0.74-1.77-0.3-3.68,1.05-4.3c1.34-0.62,3.13,0.37,3.92,2.26c0.78,1.89,0.22,3.85-1.17,4.35    C12.32,50.22,10.65,49.17,9.91,47.41z"/>
		<path class="st4" d="M6.94,39.1c-0.52-1.77,0.02-3.72,1.25-4.45c1.23-0.73,2.79,0.12,3.42,1.99c0.63,1.87,0,3.96-1.34,4.59    C8.93,41.86,7.46,40.87,6.94,39.1z"/>
		<path class="st4" d="M22.29,48.71c1.7-0.65,3.85,0.37,4.72,2.25c0.87,1.88,0.13,3.84-1.56,4.37c-1.69,0.54-3.7-0.45-4.58-2.23    C20,51.33,20.59,49.35,22.29,48.71z"/>
		<path class="st2" d="M16.98,44.49c-0.79-1.9-0.13-4.02,1.53-4.76c1.66-0.74,3.74,0.25,4.56,2.24c0.82,1.99,0.06,4.15-1.64,4.8    C19.73,47.43,17.77,46.39,16.98,44.49z"/>
		<path class="st1" d="M13.61,35.64c-0.64-1.88,0.08-4,1.66-4.82c1.58-0.81,3.49,0.05,4.21,2c0.72,1.95-0.08,4.19-1.74,4.93    C16.08,38.5,14.26,37.52,13.61,35.64z"/>
	</g>
</g>
<g>
	<path class="st6" d="M75.97,72.78V61.56h1.22v6.8c1.21-1.12,2.41-2.33,3.61-3.63h1.53c-1.06,1.16-2.31,2.38-3.74,3.66   c1.1,1.39,2.41,2.85,3.94,4.39H80.9c-1.14-1.25-2.18-2.5-3.11-3.73h-0.6v3.73H75.97z"/>
	<path class="st6" d="M83.95,63.09v-1.53h1.22v1.53H83.95z M83.95,72.78v-8.05h1.22v8.05H83.95z"/>
	<path class="st6" d="M87.47,72.41V61.56h1.22v3.71c0.71-0.48,1.46-0.71,2.25-0.71c1.04,0,1.79,0.35,2.27,1.05   c0.48,0.7,0.72,1.77,0.72,3.21c0,1.42-0.25,2.47-0.75,3.14c-0.5,0.67-1.33,1.01-2.49,1.01C89.58,72.96,88.5,72.77,87.47,72.41z    M88.69,71.75c0.71,0.13,1.34,0.2,1.88,0.2c0.82,0,1.39-0.24,1.69-0.73c0.3-0.49,0.45-1.27,0.45-2.35c0-1.13-0.15-1.95-0.44-2.46   c-0.3-0.51-0.82-0.76-1.57-0.76c-0.72,0-1.39,0.19-2.01,0.58V71.75z"/>
	<path class="st6" d="M95.64,68.81c0-1.31,0.29-2.35,0.86-3.11c0.58-0.76,1.41-1.14,2.5-1.14c1.01,0,1.78,0.34,2.3,1.01   c0.52,0.68,0.78,1.57,0.78,2.69c0,0.35-0.02,0.66-0.07,0.94h-5.07c0.11,1.78,0.91,2.66,2.38,2.66c0.7,0,1.48-0.2,2.34-0.6l0.4,0.92   c-0.92,0.52-1.88,0.78-2.87,0.78c-1.12,0-1.99-0.35-2.61-1.04C95.95,71.22,95.64,70.18,95.64,68.81z M96.92,68.21h3.94   c0-0.74-0.15-1.36-0.43-1.85c-0.29-0.49-0.77-0.73-1.44-0.73c-0.65,0-1.15,0.24-1.5,0.71C97.14,66.81,96.95,67.44,96.92,68.21z"/>
	<path class="st6" d="M103.46,72.63l0.19-1.04c0.96,0.2,1.78,0.3,2.45,0.3c1.34,0,2.01-0.44,2.01-1.31c0-0.38-0.13-0.65-0.39-0.82   c-0.26-0.17-0.76-0.37-1.5-0.58c-0.42-0.14-0.75-0.25-0.97-0.32c-0.23-0.08-0.5-0.2-0.8-0.38c-0.3-0.18-0.53-0.41-0.66-0.67   c-0.14-0.27-0.21-0.58-0.21-0.95c0-0.74,0.28-1.31,0.83-1.7c0.56-0.39,1.29-0.59,2.2-0.59c0.73,0,1.49,0.09,2.27,0.26l-0.16,1.05   c-0.8-0.15-1.5-0.23-2.11-0.23c-0.58,0-1.03,0.1-1.34,0.3c-0.32,0.2-0.47,0.48-0.47,0.85c0,0.09,0.01,0.17,0.03,0.24   c0.02,0.07,0.05,0.14,0.1,0.2c0.05,0.07,0.09,0.12,0.13,0.17c0.04,0.05,0.11,0.09,0.21,0.15c0.1,0.05,0.18,0.09,0.25,0.12   c0.07,0.02,0.18,0.06,0.31,0.1l0.33,0.11c0.08,0.03,0.21,0.07,0.39,0.13l0.44,0.15c0.81,0.26,1.41,0.55,1.78,0.88   c0.38,0.33,0.56,0.83,0.56,1.49c0,0.82-0.29,1.43-0.87,1.84c-0.58,0.4-1.38,0.61-2.41,0.61C105.24,72.96,104.38,72.85,103.46,72.63   z"/>
	<path class="st6" d="M111.21,70.29v-5.56h1.22v5.43c0,1.15,0.53,1.73,1.59,1.73c0.77,0,1.52-0.23,2.27-0.68v-6.48h1.22v8.05h-0.96   l-0.09-0.74c-0.82,0.61-1.71,0.92-2.68,0.91c-0.79,0-1.41-0.23-1.87-0.68C111.44,71.83,111.21,71.16,111.21,70.29z"/>
	<path class="st6" d="M119.88,63.09v-1.53h1.22v1.53H119.88z M119.88,72.78v-8.05h1.22v8.05H119.88z"/>
	<path class="st6" d="M123.09,72.63l0.19-1.04c0.96,0.2,1.78,0.3,2.45,0.3c1.34,0,2.01-0.44,2.01-1.31c0-0.38-0.13-0.65-0.39-0.82   c-0.26-0.17-0.76-0.37-1.5-0.58c-0.42-0.14-0.75-0.25-0.97-0.32c-0.23-0.08-0.5-0.2-0.8-0.38c-0.3-0.18-0.52-0.41-0.66-0.67   c-0.14-0.27-0.21-0.58-0.21-0.95c0-0.74,0.28-1.31,0.83-1.7c0.56-0.39,1.29-0.59,2.2-0.59c0.73,0,1.49,0.09,2.27,0.26l-0.16,1.05   c-0.8-0.15-1.5-0.23-2.11-0.23c-0.58,0-1.03,0.1-1.34,0.3c-0.32,0.2-0.47,0.48-0.47,0.85c0,0.09,0.01,0.17,0.03,0.24   c0.02,0.07,0.05,0.14,0.1,0.2c0.05,0.07,0.09,0.12,0.13,0.17c0.04,0.05,0.11,0.09,0.21,0.15c0.1,0.05,0.18,0.09,0.25,0.12   c0.07,0.02,0.18,0.06,0.31,0.1l0.33,0.11c0.08,0.03,0.21,0.07,0.39,0.13l0.44,0.15c0.81,0.26,1.41,0.55,1.78,0.88   c0.38,0.33,0.56,0.83,0.56,1.49c0,0.82-0.29,1.43-0.87,1.84c-0.58,0.4-1.38,0.61-2.41,0.61C124.87,72.96,124.01,72.85,123.09,72.63   z"/>
	<path class="st6" d="M130.25,72.63l0.19-1.04c0.96,0.2,1.78,0.3,2.45,0.3c1.34,0,2.01-0.44,2.01-1.31c0-0.38-0.13-0.65-0.39-0.82   c-0.26-0.17-0.76-0.37-1.5-0.58c-0.42-0.14-0.75-0.25-0.97-0.32c-0.23-0.08-0.5-0.2-0.8-0.38c-0.3-0.18-0.52-0.41-0.66-0.67   c-0.14-0.27-0.21-0.58-0.21-0.95c0-0.74,0.28-1.31,0.83-1.7c0.56-0.39,1.29-0.59,2.2-0.59c0.73,0,1.49,0.09,2.27,0.26l-0.16,1.05   c-0.8-0.15-1.5-0.23-2.11-0.23c-0.58,0-1.03,0.1-1.34,0.3c-0.32,0.2-0.47,0.48-0.47,0.85c0,0.09,0.01,0.17,0.03,0.24   c0.02,0.07,0.05,0.14,0.1,0.2c0.05,0.07,0.09,0.12,0.13,0.17c0.04,0.05,0.11,0.09,0.21,0.15c0.1,0.05,0.18,0.09,0.25,0.12   c0.07,0.02,0.18,0.06,0.31,0.1l0.33,0.11c0.08,0.03,0.21,0.07,0.39,0.13l0.44,0.15c0.81,0.26,1.41,0.55,1.78,0.88   c0.38,0.33,0.56,0.83,0.56,1.49c0,0.82-0.29,1.43-0.87,1.84c-0.58,0.4-1.38,0.61-2.41,0.61C132.03,72.96,131.17,72.85,130.25,72.63   z"/>
	<path class="st6" d="M137.57,68.81c0-1.31,0.29-2.35,0.86-3.11c0.58-0.76,1.41-1.14,2.5-1.14c1.01,0,1.78,0.34,2.3,1.01   c0.52,0.68,0.78,1.57,0.78,2.69c0,0.35-0.02,0.66-0.07,0.94h-5.07c0.11,1.78,0.91,2.66,2.38,2.66c0.7,0,1.48-0.2,2.34-0.6l0.4,0.92   c-0.92,0.52-1.88,0.78-2.87,0.78c-1.12,0-1.99-0.35-2.61-1.04C137.88,71.22,137.57,70.18,137.57,68.81z M138.85,68.21h3.94   c0-0.74-0.15-1.36-0.43-1.85c-0.29-0.49-0.77-0.73-1.44-0.73c-0.65,0-1.15,0.24-1.5,0.71C139.07,66.81,138.88,67.44,138.85,68.21z"/>
</g>
</svg>