<?xml version="1.0" encoding="UTF-8"?>
<svg id="Capa_2" data-name="Capa 2" xmlns="http://www.w3.org/2000/svg" viewBox="0 0 600 246.63">
  <defs>
    <style>
      .cls-1 {
        fill: #a3b194;
      }

      .cls-2 {
        fill: #8a9f8a;
      }

      .cls-3 {
        fill: #89afd3;
        fill-rule: evenodd;
      }
    </style>
  </defs>
  <g id="Capa_1-2" data-name="Capa 1">
    <path class="cls-3" d="M600,0v245.46H0v-116.58c33.36,22.49,76.71,36.07,124.1,36.07,63.65,0,120.02-24.51,154.68-62.18,13.62,1.23,27.47,1.86,41.51,1.86,112.87,0,213.63-40.78,279.72-104.63Z"/>
    <g>
      <path class="cls-1" d="M466.09,201.74h4.73c-2.66-15.13,5.76-33.27,21.79-20.2-3.61-16.77,10-46.73,25.2-22.02l3.7,9.2c2.24-12.13,10.18-28.64,22.64-31.88,14.95-3.89,17.55,13.25,16.15,24.68-.93,7.62-4.37,15.6-7.52,22.47,17.75-8.67,26.14,8.56,15.83,23.12l-5.88,5.95c11.31-1.06,19.47,6.56,14.76,18.57-3.06,7.81-11.24,9.3-18.56,8.54,0-2.3-.68-6.76-1.78-8.75-.47-.84-1.34-1.03-1.43-1.19-.1-.18.46-.77-.06-1.65-3.26-5.51-12.14-7.01-17.7-5.14-.33.11-.37.83-.43.85-.32.13-.99-.56-1.28-.36-.14.09-1.59,1.83-2.19,2.44-.65.66-1.63,3.02-2.57,2.43-.1-.06.03-.92-1.57-1.55-.74-.29-2.17-.31-2.25-.39-.23-.22.61-3.98.94-4.69,3.04-6.57,10.19-12.97,15.34-17.55,5.73-5.1,2.69-7.25-3.23-2.87-5.24,3.88-7.99,8.6-12.12,13.39-.34.39-2.39,2.89-2.81,2.36.13-11.1,3.97-21.59,7.11-32.03l1.41.5c.64-1.19-.97-.88-.98-1.26-.01-.42,1.82-5.24,2.17-6.13,1.93-4.88,4.83-9.48,6.31-14.44-1.25-2.53-2.5-.59-3.63.97-4.59,6.3-7.68,16.32-10.27,23.8-.84,2.42-1.21,3.23-1.83,5.43-1.69,5.99-3.21,12.03-4.09,18.23l-3.28-9.15c-1.81-7.8-5.2-15.08-8.32-22.39-4.36-1.88-2.59,3.3-1.8,5.81,4.15,13.25,9.06,22.72,10.51,37.35.09.94.28,2.35-.18,3.16-.57,1.01-2.9,1.34-3.85.53-.11-.09-1.48-2.24-1.56-2.41-4.83-10-6.98-17.35-15.36-25.55-1.1-1.07-4.29-3.43-5.47-1.61s1.95,3.28,2.63,4.07c6.27,7.32,12.08,15.15,15.32,24.46-6.48-3.4-13.17-3.28-19.74-.09-1.15.56-5.54,4.08-6.31,5.02l-17.05-.49c.46-1.66,2.06-10.87,1.93-12.09-.6-5.73-1.48-12.02-3.35-17.48Z"/>
      <path class="cls-2" d="M484.56,231.8c.77-.94,5.16-4.46,6.31-5.02,6.57-3.19,13.26-3.31,19.74.09-3.24-9.32-9.05-17.14-15.32-24.46-.68-.79-3.76-2.33-2.63-4.07,1.19-1.83,4.38.53,5.47,1.61,8.38,8.2,10.54,15.55,15.36,25.55.08.17,1.46,2.32,1.56,2.41.95.8,3.27.47,3.85-.53.46-.81.28-2.22.18-3.16-1.45-14.64-6.35-24.1-10.51-37.35-.79-2.51-2.55-7.7,1.8-5.81,3.12,7.31,6.51,14.58,8.32,22.39l3.28,9.15c.88-6.2,2.4-12.24,4.09-18.23.62-2.2.99-3.01,1.83-5.43,2.59-7.48,5.68-17.5,10.27-23.8,1.14-1.56,2.38-3.5,3.63-.97-1.49,4.96-4.38,9.56-6.31,14.44-.35.89-2.18,5.71-2.17,6.13.01.37,1.62.06.98,1.26l-1.41-.5c-3.14,10.44-6.98,20.93-7.11,32.03.42.52,2.47-1.97,2.81-2.36,4.13-4.79,6.88-9.52,12.12-13.39,5.92-4.38,8.96-2.23,3.23,2.87-5.15,4.59-12.3,10.98-15.34,17.55-.33.72-1.17,4.48-.94,4.69.08.08,1.51.1,2.25.39,1.6.63,1.47,1.49,1.57,1.55.95.59,1.93-1.77,2.57-2.43.6-.61,2.05-2.34,2.19-2.44.29-.19.96.49,1.28.36.06-.02.1-.74.43-.85,5.56-1.88,14.45-.37,17.7,5.14.52.88-.05,1.46.06,1.65.09.16.96.35,1.43,1.19,1.1,1.99,1.78,6.45,1.78,8.75,0,1.32-.29,5.86-1.66,5.91-17.58.82-35.26.61-52.81,0l.71-.99c-3.39-.49-8.08,1.12-10.9-.98-.29,1.74-1.69.09-3.08.49l.48-1.96h-1.42s.47,1.96.47,1.96l-8.99-.5c-.05-1.22-.02-2.44.03-3.66.03-.85,1.17-1.43-.51-1.26.46-2.44,1.77-5.5,3.32-7.39ZM496.4,243.14l-2.36-.26c.81,1.11,1.11,1.24,2.36.74v-.48Z"/>
    </g>
    <g>
      <path class="cls-1" d="M249.02,136.05h4.73c-2.66-15.13,5.76-33.27,21.79-20.2-3.61-16.77,10-46.73,25.2-22.02l3.7,9.2c2.24-12.13,10.18-28.64,22.64-31.88,14.95-3.89,17.55,13.25,16.15,24.68-.93,7.62-4.37,15.6-7.52,22.47,17.75-8.67,26.14,8.56,15.83,23.12l-5.88,5.95c11.31-1.06,19.47,6.56,14.76,18.57-3.06,7.81-11.24,9.3-18.56,8.54,0-2.3-.68-6.76-1.78-8.75-.47-.84-1.34-1.03-1.43-1.19-.1-.18.46-.77-.06-1.65-3.26-5.51-12.14-7.01-17.7-5.14-.33.11-.37.83-.43.85-.32.13-.99-.56-1.28-.36-.14.09-1.59,1.83-2.19,2.44-.65.66-1.63,3.02-2.57,2.43-.1-.06.03-.92-1.57-1.55-.74-.29-2.17-.31-2.25-.39-.23-.22.61-3.98.94-4.69,3.04-6.57,10.19-12.97,15.34-17.55,5.73-5.1,2.69-7.25-3.23-2.87-5.24,3.88-7.99,8.6-12.12,13.39-.34.39-2.39,2.89-2.81,2.36.13-11.1,3.97-21.59,7.11-32.03l1.41.5c.64-1.19-.97-.88-.98-1.26-.01-.42,1.82-5.24,2.17-6.13,1.93-4.88,4.83-9.48,6.31-14.44-1.25-2.53-2.5-.59-3.63.97-4.59,6.3-7.68,16.32-10.27,23.8-.84,2.42-1.21,3.23-1.83,5.43-1.69,5.99-3.21,12.03-4.09,18.23l-3.28-9.15c-1.81-7.8-5.2-15.08-8.32-22.39-4.36-1.88-2.59,3.3-1.8,5.81,4.15,13.25,9.06,22.72,10.51,37.35.09.94.28,2.35-.18,3.16-.57,1.01-2.9,1.34-3.85.53-.11-.09-1.48-2.24-1.56-2.41-4.83-10-6.98-17.35-15.36-25.55-1.1-1.07-4.29-3.43-5.47-1.61s1.95,3.28,2.63,4.07c6.27,7.32,12.08,15.15,15.32,24.46-6.48-3.4-13.17-3.28-19.74-.09-1.15.56-5.54,4.08-6.31,5.02l-17.05-.49c.46-1.66,2.06-10.87,1.93-12.09-.6-5.73-1.48-12.02-3.35-17.48Z"/>
      <path class="cls-2" d="M267.49,166.1c.77-.94,5.16-4.46,6.31-5.02,6.57-3.19,13.26-3.31,19.74.09-3.24-9.32-9.05-17.14-15.32-24.46-.68-.79-3.76-2.33-2.63-4.07,1.19-1.83,4.38.53,5.47,1.61,8.38,8.2,10.54,15.55,15.36,25.55.08.17,1.46,2.32,1.56,2.41.95.8,3.27.47,3.85-.53.46-.81.28-2.22.18-3.16-1.45-14.64-6.35-24.1-10.51-37.35-.79-2.51-2.55-7.7,1.8-5.81,3.12,7.31,6.51,14.58,8.32,22.39l3.28,9.15c.88-6.2,2.4-12.24,4.09-18.23.62-2.2.99-3.01,1.83-5.43,2.59-7.48,5.68-17.5,10.27-23.8,1.14-1.56,2.38-3.5,3.63-.97-1.49,4.96-4.38,9.56-6.31,14.44-.35.89-2.18,5.71-2.17,6.13.01.37,1.62.06.98,1.26l-1.41-.5c-3.14,10.44-6.98,20.93-7.11,32.03.42.52,2.47-1.97,2.81-2.36,4.13-4.79,6.88-9.52,12.12-13.39,5.92-4.38,8.96-2.23,3.23,2.87-5.15,4.59-12.3,10.98-15.34,17.55-.33.72-1.17,4.48-.94,4.69.08.08,1.51.1,2.25.39,1.6.63,1.47,1.49,1.57,1.55.95.59,1.93-1.77,2.57-2.43.6-.61,2.05-2.34,2.19-2.44.29-.19.96.49,1.28.36.06-.02.1-.74.43-.85,5.56-1.88,14.45-.37,17.7,5.14.52.88-.05,1.46.06,1.65.09.16.96.35,1.43,1.19,1.1,1.99,1.78,6.45,1.78,8.75,0,1.32-.29,5.86-1.66,5.91-17.58.82-35.26.61-52.81,0l.71-.99c-3.39-.49-8.08,1.12-10.9-.98-.29,1.74-1.69.09-3.08.49l.48-1.96h-1.42s.47,1.96.47,1.96l-8.99-.5c-.05-1.22-.02-2.44.03-3.66.03-.85,1.17-1.43-.51-1.26.46-2.44,1.77-5.5,3.32-7.39ZM279.33,177.44l-2.36-.26c.81,1.11,1.11,1.24,2.36.74v-.48Z"/>
    </g>
  </g>
</svg>