<?xml version="1.0" encoding="UTF-8"?>
<svg id="Capa_2" data-name="Capa 2" xmlns="http://www.w3.org/2000/svg" viewBox="0 0 43.63 43.6">
  <defs>
    <style>
      .cls-1 {
        fill: #072c75;
      }

      .cls-2 {
        fill: #fb6050;
      }

      .cls-3 {
        fill: #b0d752;
      }

      .cls-4 {
        fill: #f4af73;
      }

      .cls-5 {
        fill: #fcdfbd;
      }

      .cls-6 {
        fill: #fefefe;
      }
    </style>
  </defs>
  <g id="Capa_1-2" data-name="Capa 1">
    <g>
      <path class="cls-6" d="M7.75,4.27c-.67.12-.78,1.12-1.07,1.66-.35.64-.97,1.27-1.61,1.63s-2.16.53-1.62,1.66c.22.46,1.17.61,1.66.9s1.11.91,1.42,1.39c.47.72.61,2.32,1.82,1.8.37-.16.68-1.35.94-1.78.3-.5.82-1.01,1.32-1.32.45-.28,1.67-.57,1.81-1,.37-1.17-.93-1.23-1.67-1.66-.62-.36-1.21-.97-1.57-1.58s-.46-1.85-1.43-1.68Z"/>
      <path class="cls-1" d="M43.61,30.57c-.44,5.25-3.85,10.55-8.51,12.99l-26.35.04C4.02,41.35.71,36.22.12,31.03c-.06-.56-.19-1.68-.08-2.19.05-.23.49-.66.71-.66h2.26c-1.53-2.76-2.01-6.47.51-8.82,2.01-1.87,4.8-1.73,7.23-.82.42-.71,1.25-1.25,2.04-1.45-.31-4.12,4.58-6.43,7.47-3.41.98-.58,2-.65,3.12-.58.76-1.62,2.09-2.99,3.78-3.65.98-.38,1.26-.45,1.98.37.62.71,1.62,2.65,1.62,3.57v1.83c1.89-1.01,4.25-1.09,6.19-.19.38.18.89.36.96.83.1.61-.06,1.46-.23,2.06s-.48,1.1-.61,1.67c1.29.94,1.89,2.39,1.91,3.98,1.91.71,3.09,2.56,2.94,4.6.71-.03,1.3-.08,1.7.6-.04.58.05,1.21,0,1.79ZM26.77,18.3c.28.44,1.18-.68,1.33-.9,1.21-1.73,1.29-3.98.2-5.79-.44-.72-.47-.6-1.18-.21-.6.33-2.08,1.69-2.14,2.37-.02.22.48.46.63.62.67.73,1.22,1.94,1.23,2.95,0,.24-.19.78-.08.96ZM22.59,28.19c.18-1.05.64-2.06,1.45-2.77.16-.14.9-.6.93-.7.03-.09-.09-.76-.08-1.01.06-1.27.84-2.6,1.87-3.32-.37-.67-1.51-.65-1.82-1.24-.27-.51.21-1.16.21-1.74,0-1.91-2.09-3.17-3.8-2.36-.47.22-.73.77-1.34.69-.51-.06-.93-.96-1.51-1.31-1.79-1.09-4.06.19-4,2.29.02.52.35.96.04,1.48-.33.56-1.94.31-2.16,1.2,3.27,1.71,6.06,4.79,5.28,8.77h4.94ZM35.42,18.89c.4-.69.73-1.47.75-2.28-2.7-1.27-6.19.17-7.03,3.07.26,0,.52-.02.79.02.36.06,1.34.51,1.47.49.2-.02.59-.46.78-.59,1.06-.66,2.02-.76,3.25-.71ZM8.97,28.19c1.16,0,2.33,0,3.49,0s2.33,0,3.49,0c.39-2.3-.27-4.04-1.96-5.58-2.31-2.1-7.16-4.64-9.66-1.58-1.71,2.09-.62,5.08.64,7.11,1.33.08,2.67.04,4,.04ZM24.37,28.19h15.71c.47,0-.18-1.73-.38-2-.69-.94-1.2-.79-2.1-1.13-.96-.37-.34-1.29-.37-2.01-.09-1.9-2.25-3.07-3.9-2.14-.58.33-1.1,1.31-1.6,1.38-.59.09-.86-.45-1.32-.68-1.79-.89-3.94.51-3.79,2.52.04.53.4,1.02.18,1.56-.18.43-.77.46-1.13.66-.63.33-1.23,1.12-1.27,1.84ZM19.44,41.9c5.08,0,10.16.03,15.23-.05,3.77-2.19,6.86-6.73,7.15-11.15.03-.48.14-.84-.46-.81-8.67.01-17.34,0-26.01,0-4.49,0-8.99-.01-13.48.01-.1.03-.13.08-.12.18.23,4.78,3.16,9.36,7.22,11.78,3.49.07,6.98.03,10.47.04Z"/>
      <path class="cls-4" d="M35.95,0c.63.33.66,1.07,1.01,1.68.41.73,1.08,1.37,1.83,1.75.57.28,1.49.31,1.49,1.13s-.98.87-1.55,1.17c-.72.37-1.38,1.02-1.77,1.72-.3.54-.41,1.47-1,1.64-1.06.29-1.15-.99-1.55-1.69s-.99-1.27-1.68-1.64c-.78-.41-1.79-.3-1.51-1.51.11-.48,1.17-.68,1.62-.93.57-.32,1.18-.9,1.52-1.46.39-.64.42-1.49,1.09-1.85h.51ZM35.66,2.98c-.11.02-1.24,1.48-1.58,1.57.34.11,1.47,1.55,1.58,1.57.17.03.42-.42.54-.55.35-.37.73-.69,1.11-1.02-.31-.13-1.54-1.59-1.65-1.57Z"/>
      <path class="cls-4" d="M7.75,4.27c.97-.17,1.06,1.04,1.43,1.68s.95,1.22,1.57,1.58c.73.43,2.04.5,1.67,1.66-.14.43-1.36.72-1.81,1-.5.31-1.01.82-1.32,1.32-.26.43-.57,1.63-.94,1.78-1.2.52-1.35-1.08-1.82-1.8-.31-.48-.94-1.1-1.42-1.39s-1.44-.43-1.66-.9c-.53-1.12.95-1.28,1.62-1.66s1.25-.99,1.61-1.63c.29-.54.4-1.54,1.07-1.66ZM8.03,7.24c-.16-.11-.49.44-.59.56-.35.36-.73.69-1.11,1.02l.94.85.64.81c.5-.61,1.05-1.16,1.66-1.66-.6-.37-.98-.87-1.45-1.36-.07-.07-.07-.2-.08-.21Z"/>
      <path class="cls-5" d="M15.35,29.89c8.67,0,17.34,0,26.01,0,.6-.03.5.33.46.81-.29,4.42-3.39,8.96-7.15,11.15-5.08.08-10.16.05-15.23.05-2.51-3.49-4.01-7.68-4.09-12.01Z"/>
      <path class="cls-4" d="M15.35,29.89c.07,4.33,1.58,8.52,4.09,12.01-3.49,0-6.99.04-10.47-.04-4.06-2.42-6.99-7-7.22-11.78,0-.1.03-.15.12-.18,4.49-.03,8.99,0,13.48-.01Z"/>
      <path class="cls-2" d="M22.59,28.19h-4.94c.78-3.98-2.01-7.07-5.28-8.77.22-.89,1.83-.64,2.16-1.2.31-.52-.03-.97-.04-1.48-.06-2.1,2.21-3.39,4-2.29.58.35.99,1.25,1.51,1.31.6.07.87-.47,1.34-.69,1.71-.81,3.8.45,3.8,2.36,0,.58-.47,1.23-.21,1.74.31.59,1.46.57,1.82,1.24-1.04.72-1.82,2.04-1.87,3.32-.01.25.11.92.08,1.01-.03.09-.77.55-.93.7-.8.71-1.27,1.72-1.45,2.77ZM18.64,19.47c.73-.74-.39-1.97-1.21-1.25-.87.76.35,2.12,1.21,1.25ZM21.97,20.54c-1.02.2-.87,1.97.47,1.67.95-.22.64-1.88-.47-1.67ZM21.11,24.39c-.83-.81-2.08.48-1.21,1.25s1.94-.54,1.21-1.25Z"/>
      <path class="cls-3" d="M24.37,28.19c.04-.72.64-1.51,1.27-1.84.36-.19.96-.22,1.13-.66.22-.55-.14-1.03-.18-1.56-.15-2,2-3.4,3.79-2.52.47.23.74.77,1.32.68.51-.07,1.02-1.06,1.6-1.38,1.66-.93,3.82.23,3.9,2.14.03.72-.59,1.64.37,2.01.9.35,1.41.19,2.1,1.13.2.27.86,2,.38,2h-15.71Z"/>
      <path class="cls-6" d="M8.97,28.19c-1.33,0-2.67.04-4-.04-1.26-2.03-2.35-5.02-.64-7.11,2.5-3.06,7.35-.52,9.66,1.58,1.69,1.53,2.35,3.28,1.96,5.58-1.16,0-2.33,0-3.49,0,1.17-1.78-.41-3.99-2.49-3.3-1.35.45-1.75,2.17-1,3.3Z"/>
      <path class="cls-4" d="M35.42,18.89c-1.23-.05-2.19.06-3.25.71-.2.12-.59.56-.78.59-.13.01-1.11-.43-1.47-.49-.26-.04-.52-.02-.79-.02.84-2.9,4.33-4.34,7.03-3.07-.02.81-.35,1.59-.75,2.28Z"/>
      <path class="cls-4" d="M26.77,18.3c-.11-.18.08-.73.08-.96,0-1.01-.56-2.21-1.23-2.95-.14-.16-.65-.4-.63-.62.06-.68,1.54-2.04,2.14-2.37.71-.39.74-.51,1.18.21,1.1,1.81,1.01,4.06-.2,5.79-.15.22-1.05,1.34-1.33.9Z"/>
      <path class="cls-4" d="M12.46,28.19c-1.16,0-2.33,0-3.49,0-.75-1.13-.36-2.86,1-3.3,2.09-.69,3.66,1.52,2.49,3.3Z"/>
      <path class="cls-6" d="M35.66,2.98c.11-.02,1.33,1.44,1.65,1.57-.38.33-.76.65-1.11,1.02-.12.13-.37.58-.54.55-.11-.02-1.24-1.46-1.58-1.57.35-.09,1.47-1.55,1.58-1.57Z"/>
      <path class="cls-6" d="M8.03,7.24s.02.14.08.21c.47.5.85.99,1.45,1.36-.61.5-1.16,1.05-1.66,1.66l-.64-.81-.94-.85c.38-.33.76-.66,1.11-1.02.11-.11.43-.67.59-.56Z"/>
      <path class="cls-6" d="M21.97,20.54c1.11-.21,1.42,1.45.47,1.67-1.34.31-1.49-1.47-.47-1.67Z"/>
      <path class="cls-6" d="M21.11,24.39c.73.71-.33,2.03-1.21,1.25s.38-2.06,1.21-1.25Z"/>
      <path class="cls-6" d="M18.64,19.47c-.86.87-2.08-.49-1.21-1.25.82-.72,1.93.51,1.21,1.25Z"/>
    </g>
  </g>
</svg>